<svg width="350" height="350" viewBox="0 0 350 350" fill="none" xmlns="http://www.w3.org/2000/svg">
<g clip-path="url(#clip0_1_2)">
<path d="M174.831 0C102.056 0 42.849 59.207 42.849 131.981C42.849 162.064 64.005 206.639 105.73 264.466C136.19 306.681 167.093 341.073 167.401 341.416L174.83 349.661L182.259 341.416C182.568 341.074 213.47 306.682 243.93 264.466C285.655 206.638 306.811 162.064 306.811 131.981C306.812 59.207 247.605 0 174.831 0ZM174.83 319.617C137.772 276.925 62.85 180.569 62.85 131.981C62.849 70.235 113.084 20 174.831 20C236.578 20 286.812 70.235 286.812 131.981C286.812 180.54 211.888 276.915 174.83 319.617Z" fill="white"/>
<path d="M174.831 181.678C202.277 181.678 224.527 159.428 224.527 131.982C224.527 104.536 202.277 82.286 174.831 82.286C147.385 82.286 125.135 104.536 125.135 131.982C125.135 159.428 147.385 181.678 174.831 181.678Z" fill="white"/>
</g>
<defs>
<clipPath id="clip0_1_2">
<rect width="349.661" height="349.661" fill="white"/>
</clipPath>
</defs>
</svg>
