<svg xmlns="http://www.w3.org/2000/svg" viewBox="0 0 104.17 27.25"><defs><style>.cls-1,.cls-2{fill:#fff;}.cls-1{fill-rule:evenodd;}</style></defs><g id="Layer_2" data-name="Layer 2"><g id="Layer_1-2" data-name="Layer 1"><path class="cls-1" d="M14.85,22.56a9.35,9.35,0,0,1-5.3.11,9.5,9.5,0,1,1,7.91-1.39,8.5,8.5,0,0,1-1.94-1.44,8.1,8.1,0,0,1-1.77-2.66,7.88,7.88,0,0,1-.62-3H16v-2.5H7.43v2.5h3.2a10.57,10.57,0,0,0,.81,4,10.68,10.68,0,0,0,2.32,3.47A10.9,10.9,0,0,0,14.85,22.56Zm8.75-6A12,12,0,1,1,15.11,1.9,12,12,0,0,1,23.6,16.6Z"/><path class="cls-2" d="M32,12.44h2.33V5.77h2.55v-2H29.45v2H32Z"/><path class="cls-2" d="M37.92,12.44h4.45c2.57,0,3.41-1.07,3.41-2.48A2.07,2.07,0,0,0,43.9,7.91v0a1.87,1.87,0,0,0,1.43-2c0-1.36-1-2.1-3.21-2.1h-4.2Zm2.25-5.15V5.63H42c.6,0,1.06.21,1.06.81s-.35.85-1.2.85Zm0,3.34V8.86h2c.82,0,1.25.27,1.25.85s-.39.92-1.3.92Z"/><path class="cls-2" d="M51.09,12.6a4.34,4.34,0,0,0,4.59-4.46,4.32,4.32,0,0,0-4.59-4.45,4.34,4.34,0,0,0-4.62,4.45A4.35,4.35,0,0,0,51.09,12.6Zm0-2.08a2.25,2.25,0,0,1-2.26-2.38,2.25,2.25,0,1,1,4.49,0A2.25,2.25,0,0,1,51.09,10.52Z"/><path class="cls-2" d="M61.16,2.79A2.86,2.86,0,0,0,64.3.34L62.37,0c-.09.69-.39,1.39-1.19,1.39S60.06.69,60,0L58,.34A2.85,2.85,0,0,0,61.16,2.79ZM57,12.44h2.24L62.78,7.2h0v5.24h2.31V3.81h-2.2L59.32,9.3h0V3.81H57Z"/><path class="cls-2" d="M34.32,23.91a4.34,4.34,0,0,0,4.59-4.46A4.32,4.32,0,0,0,34.32,15a4.34,4.34,0,0,0-4.62,4.45A4.35,4.35,0,0,0,34.32,23.91Zm0-2.08a2.25,2.25,0,0,1-2.26-2.38,2.25,2.25,0,1,1,4.49,0A2.25,2.25,0,0,1,34.32,21.83Z"/><path class="cls-2" d="M40.2,27.25h2.33V22.8l0,0a3.16,3.16,0,0,0,2.54,1.13,4.12,4.12,0,0,0,4.17-4.45A4.15,4.15,0,0,0,45.17,15a3.38,3.38,0,0,0-2.61,1.11h0v-1H40.2Zm4.49-5.42a2.23,2.23,0,0,1-2.27-2.35,2.25,2.25,0,1,1,4.49,0A2.19,2.19,0,0,1,44.69,21.83Z"/><path class="cls-2" d="M52.14,23.75h2.33V17.08H57v-2H49.6v2h2.54Z"/><path class="cls-2" d="M62,23.91a4.34,4.34,0,0,0,4.6-4.46,4.61,4.61,0,0,0-9.22,0A4.35,4.35,0,0,0,62,23.91Zm0-2.08a2.26,2.26,0,0,1-2.26-2.38,2.25,2.25,0,1,1,4.49,0A2.25,2.25,0,0,1,62,21.83Z"/><path class="cls-2" d="M77,21.78H75.47V15.12H73A4.4,4.4,0,0,0,68.89,19c0,.08,0,.16,0,.25A9.49,9.49,0,0,1,68,21.78H66.65l0,4.25h1.94l.1-2.28h6.25L75,26H77Zm-6.69,0a9.7,9.7,0,0,0,.65-1.88c.08-.33.14-.67.2-1a2.09,2.09,0,0,1,2-1.83v4.72Z"/><path class="cls-2" d="M81.83,23.91a4.34,4.34,0,0,0,4.6-4.46,4.61,4.61,0,0,0-9.21,0A4.34,4.34,0,0,0,81.83,23.91Zm0-2.08a2.25,2.25,0,0,1-2.25-2.38,2.25,2.25,0,1,1,4.49,0A2.25,2.25,0,0,1,81.83,21.83Z"/><path class="cls-2" d="M87.72,23.75H90V20.49h3.34v3.26h2.34V15.12H93.38v3.46H90V15.12H87.72Z"/><path class="cls-2" d="M99.29,23.75h2.33V17.08h2.55v-2H96.75v2h2.54Z"/></g></g></svg>